<svg width="32" height="32" viewBox="0 0 32 32" fill="none" xmlns="http://www.w3.org/2000/svg">
  <circle cx="16" cy="16" r="16" fill="#F5AC37"/>
  <path d="M9.277 8.5H17.0956C20.8267 8.5 23.8333 11.1167 23.8333 14.9833C23.8333 18.85 20.8267 21.5 17.0956 21.5H9.277V8.5ZM12.7601 18.6167H16.9321C18.9505 18.6167 20.2962 17.1333 20.2962 14.9833C20.2962 12.8 18.9505 11.3833 16.9321 11.3833H12.7601V18.6167Z" fill="white"/>
  <path d="M16 6.5C10.7533 6.5 6.5 10.7533 6.5 16C6.5 21.2467 10.7533 25.5 16 25.5C21.2467 25.5 25.5 21.2467 25.5 16C25.5 10.7533 21.2467 6.5 16 6.5ZM16 23.5C11.8579 23.5 8.5 20.1421 8.5 16C8.5 11.8579 11.8579 8.5 16 8.5C20.1421 8.5 23.5 11.8579 23.5 16C23.5 20.1421 20.1421 23.5 16 23.5Z" fill="#F5AC37"/>
</svg> 