<svg xmlns="http://www.w3.org/2000/svg" viewBox="0 0 32 32" width="32" height="32">
  <circle cx="16" cy="16" r="15" fill="#F5AC37"/>
  <path d="M9.622 12.743v1.043h1.323c2.855 0 5.69 0 8.534.02.53 0 1.01.204 1.373.593.296.327.439.736.439 1.186.01.429-.143.858-.47 1.166-.347.368-.807.552-1.313.572-2.834.02-5.659.02-8.493.02h-1.393v1.044h9.958c.561-.225.807-.45 1.05-.92.255-.46.367-1.044.367-1.595.01-.552-.122-1.125-.398-1.605-.265-.47-.674-.85-1.16-1.074-.153-.082-.316-.133-.48-.184h-9.337zm7.548-2.088L16 9.5l-1.18 1.155-2.443 2.088h11.266l-2.432-2.088h-4.04zm-7.548 8.88v1.043h9.887c.183-.04.357-.102.52-.194a2.673 2.673 0 0 0 1.139-1.064c.255-.47.387-1.023.387-1.585.01-.5-.102-1.023-.347-1.482h-1.14c.244.46.356.962.346 1.473-.01.46-.133.91-.408 1.258-.316.398-.787.603-1.282.603-2.865 0-5.72 0-8.563-.01h-.54v-.04z" fill="#fff"/>
</svg> 