<svg width="32" height="32" viewBox="0 0 32 32" fill="none" xmlns="http://www.w3.org/2000/svg">
  <circle cx="16" cy="16" r="16" fill="#2775CA"/>
  <path d="M16 25.5C21.2467 25.5 25.5 21.2467 25.5 16C25.5 10.7533 21.2467 6.5 16 6.5C10.7533 6.5 6.5 10.7533 6.5 16C6.5 21.2467 10.7533 25.5 16 25.5Z" fill="#2775CA"/>
  <path d="M16 22.5C19.5899 22.5 22.5 19.5899 22.5 16C22.5 12.4101 19.5899 9.5 16 9.5C12.4101 9.5 9.5 12.4101 9.5 16C9.5 19.5899 12.4101 22.5 16 22.5Z" fill="white"/>
  <path d="M17.4 17.4H19.2V14.6H20.6V13H19.2V11H17.4V13H16.6V11H14.8V13H13.4V14.6H14.8V17.4H13.4V19H14.8V21H16.6V19H17.4V21H19.2V19H20.6V17.4H19.2H17.4ZM17.4 14.6V17.4H16.6V14.6H17.4Z" fill="#2775CA"/>
</svg> 