<svg width="32" height="32" viewBox="0 0 32 32" fill="none" xmlns="http://www.w3.org/2000/svg">
  <circle cx="16" cy="16" r="16" fill="#26A17B"/>
  <path d="M17.922 16.792V16.8013C17.818 16.8013 15.25 16.8013 15.12 16.8013C13.8588 16.8013 12.8363 16.5488 12.8363 14.6613C12.8363 12.7825 13.8588 12.5212 15.12 12.5212H19.6087V10.3125H15.1375C12.1337 10.3125 10.4 11.6188 10.4 14.6613C10.4 17.7125 12.1337 19 15.1375 19H17.922V21.6875H19.6087V19H21.6V16.792H17.922Z" fill="white"/>
  <path d="M16 6.5C10.7533 6.5 6.5 10.7533 6.5 16C6.5 21.2467 10.7533 25.5 16 25.5C21.2467 25.5 25.5 21.2467 25.5 16C25.5 10.7533 21.2467 6.5 16 6.5ZM16 23.5C11.8579 23.5 8.5 20.1421 8.5 16C8.5 11.8579 11.8579 8.5 16 8.5C20.1421 8.5 23.5 11.8579 23.5 16C23.5 20.1421 20.1421 23.5 16 23.5Z" fill="#26A17B"/>
</svg> 